<svg width="26" height="26" viewBox="0 0 26 26" fill="none" xmlns="http://www.w3.org/2000/svg">
<path d="M25.9914 13.0005C25.9914 19.5663 21.1259 24.9944 14.8052 25.8752C14.2141 25.9572 13.6095 26 12.9957 26C12.2872 26 11.5915 25.9435 10.914 25.8342C4.72621 24.8377 0 19.4706 0 13.0005C0 5.82069 5.81898 0 12.9966 0C20.1743 0 25.9933 5.82069 25.9933 13.0005H25.9914Z" fill="#557D32"/>
<path d="M14.8053 10.439V13.271H18.3076L17.753 17.0859H14.8053V25.8752C14.2143 25.9572 13.6096 26 12.9958 26C12.2874 26 11.5916 25.9436 10.9141 25.8342V17.0859H7.68408V13.271H10.9141V9.80594C10.9141 7.6562 12.6562 5.91272 14.8062 5.91272V5.91454C14.8126 5.91454 14.818 5.91272 14.8244 5.91272H18.3085V9.21203H16.0319C15.3553 9.21203 14.8062 9.7613 14.8062 10.4381L14.8053 10.439Z" fill="#FAFFDC"/>
</svg>
