<svg width="26" height="26" fill="none" xmlns="http://www.w3.org/2000/svg"><path d="M25.991 13c0 6.566-4.865 11.994-11.186 12.875a13.169 13.169 0 01-3.891-.04C4.726 24.837 0 19.47 0 13 0 5.82 5.819 0 12.997 0c7.177 0 12.996 5.82 12.996 13h-.002z" fill="#383D38"/><path d="M14.805 10.439v2.832h3.503l-.555 3.815h-2.948v8.79a13.166 13.166 0 01-3.891-.042v-8.748h-3.23V13.27h3.23V9.806a3.893 3.893 0 013.892-3.893v.002l.018-.002h3.484v3.299h-2.276c-.677 0-1.226.55-1.226 1.226v.001z" fill="#fff"/></svg>