<svg width="26" height="26" viewBox="0 0 26 26" fill="none" xmlns="http://www.w3.org/2000/svg">
<path d="M13.0258 0H12.9666C5.80534 0 0 5.80705 0 12.9704V13.0296C0 20.193 5.80534 26 12.9666 26H13.0258C20.187 26 25.9923 20.193 25.9923 13.0296V12.9704C25.9923 5.80705 20.187 0 13.0258 0Z" fill="#557D32"/>
<path d="M17.0181 5.28961H8.97537C6.75342 5.28961 4.9458 7.09776 4.9458 9.32037V16.6805C4.9458 18.9031 6.75342 20.7113 8.97537 20.7113H17.0181C19.2401 20.7113 21.0477 18.9031 21.0477 16.6805V9.32037C21.0477 7.09776 19.2401 5.28961 17.0181 5.28961ZM6.36731 9.32037C6.36731 7.88205 7.53748 6.71154 8.97537 6.71154H17.0181C18.456 6.71154 19.6262 7.88205 19.6262 9.32037V16.6805C19.6262 18.1188 18.456 19.2893 17.0181 19.2893H8.97537C7.53748 19.2893 6.36731 18.1188 6.36731 16.6805V9.32037Z" fill="#FAFFDC"/>
<path d="M12.9967 16.7488C15.063 16.7488 16.7449 15.0673 16.7449 12.9995C16.7449 10.9318 15.0639 9.25024 12.9967 9.25024C10.9296 9.25024 9.24854 10.9318 9.24854 12.9995C9.24854 15.0673 10.9296 16.7488 12.9967 16.7488ZM12.9967 10.6731C14.2798 10.6731 15.3234 11.717 15.3234 13.0004C15.3234 14.2839 14.2798 15.3278 12.9967 15.3278C11.7136 15.3278 10.67 14.2839 10.67 13.0004C10.67 11.717 11.7136 10.6731 12.9967 10.6731Z" fill="#FAFFDC"/>
<path d="M17.0919 9.85597C17.6483 9.85597 18.1018 9.40324 18.1018 8.84577C18.1018 8.28829 17.6492 7.83557 17.0919 7.83557C16.5346 7.83557 16.082 8.28829 16.082 8.84577C16.082 9.40324 16.5346 9.85597 17.0919 9.85597Z" fill="#FAFFDC"/>
</svg>
