<svg width="26" height="26" fill="none" xmlns="http://www.w3.org/2000/svg"><path d="M13.026.001h-.06C5.807.001 0 5.808 0 12.971v.06C0 20.194 5.805 26 12.967 26h.059c7.161 0 12.966-5.807 12.966-12.97v-.06c0-7.163-5.805-12.97-12.966-12.97z" fill="#383D38"/><path d="M17.018 5.29H8.975a4.035 4.035 0 00-4.03 4.032v7.36a4.035 4.035 0 004.03 4.03h8.043a4.035 4.035 0 004.03-4.03v-7.36a4.035 4.035 0 00-4.03-4.031zM6.368 9.323a2.612 2.612 0 012.607-2.61h8.043a2.612 2.612 0 012.608 2.61v7.36a2.612 2.612 0 01-2.608 2.609H8.975a2.612 2.612 0 01-2.608-2.61v-7.36z" fill="#fff"/><path d="M12.997 16.75A3.753 3.753 0 0016.745 13a3.752 3.752 0 00-3.748-3.749 3.752 3.752 0 00-3.749 3.75 3.753 3.753 0 003.749 3.75zm0-6.076a2.33 2.33 0 012.326 2.328 2.33 2.33 0 01-2.326 2.327 2.33 2.33 0 01-2.327-2.327 2.33 2.33 0 012.327-2.328zM17.092 9.857a1.011 1.011 0 000-2.02 1.01 1.01 0 000 2.02z" fill="#fff"/></svg>