<svg width="26" height="26" viewBox="0 0 26 26" fill="none" xmlns="http://www.w3.org/2000/svg">
<path d="M13.0258 0H12.9666C5.80534 0 0 5.80705 0 12.9704V13.0296C0 20.193 5.80534 26 12.9666 26H13.0258C20.187 26 25.9924 20.193 25.9924 13.0296V12.9704C25.9924 5.80705 20.187 0 13.0258 0Z" fill="#557D32"/>
<path d="M19.279 9.40603V11.8609C18.8501 11.819 18.2928 11.7216 17.6763 11.4957C16.8713 11.2005 16.2721 10.797 15.8796 10.4845V15.4463L15.8696 15.4308C15.876 15.5291 15.8796 15.6293 15.8796 15.7305C15.8796 18.1945 13.8753 20.2003 11.4111 20.2003C8.94694 20.2003 6.94263 18.1945 6.94263 15.7305C6.94263 13.2665 8.94694 11.2597 11.4111 11.2597C11.6524 11.2597 11.8892 11.2789 12.1205 11.3162V13.7356C11.8983 13.6563 11.6597 13.6135 11.4111 13.6135C10.2446 13.6135 9.29481 14.5627 9.29481 15.7305C9.29481 16.8982 10.2446 17.8474 11.4111 17.8474C12.5777 17.8474 13.5275 16.8973 13.5275 15.7305C13.5275 15.6867 13.5265 15.643 13.5238 15.5993V5.95734H15.9762C15.9853 6.16502 15.9935 6.37454 16.0026 6.58222C16.019 6.99122 16.1647 7.38382 16.4187 7.70537C16.7165 8.08339 17.1563 8.52245 17.7738 8.87315C18.352 9.20016 18.8948 9.34135 19.279 9.40785V9.40603Z" fill="#FAFFDC"/>
</svg>
