<svg width="27" height="26" viewBox="0 0 27 26" fill="none" xmlns="http://www.w3.org/2000/svg">
<path d="M14.0114 0.0012207H13.9522C6.79093 0.0012207 0.985596 5.80827 0.985596 12.9716V13.0308C0.985596 20.1942 6.79093 26.0012 13.9522 26.0012H14.0114C21.1726 26.0012 26.9779 20.1942 26.9779 13.0308V12.9716C26.9779 5.80827 21.1726 0.0012207 14.0114 0.0012207Z" fill="white"/>
<path d="M20.2647 9.40724V11.8621C19.8358 11.8202 19.2785 11.7228 18.662 11.4969C17.857 11.2017 17.2578 10.7982 16.8653 10.4857V15.4475L16.8553 15.432C16.8617 15.5303 16.8653 15.6305 16.8653 15.7317C16.8653 18.1957 14.861 20.2015 12.3968 20.2015C9.93261 20.2015 7.9283 18.1957 7.9283 15.7317C7.9283 13.2677 9.93261 11.2609 12.3968 11.2609C12.6381 11.2609 12.8749 11.2801 13.1062 11.3174V13.7368C12.884 13.6575 12.6454 13.6147 12.3968 13.6147C11.2303 13.6147 10.2805 14.5639 10.2805 15.7317C10.2805 16.8994 11.2303 17.8486 12.3968 17.8486C13.5633 17.8486 14.5131 16.8985 14.5131 15.7317C14.5131 15.6879 14.5122 15.6442 14.5095 15.6005V5.95854H16.9618C16.9709 6.16623 16.9791 6.37574 16.9882 6.58343C17.0046 6.99242 17.1503 7.38502 17.4044 7.70657C17.7022 8.0846 18.142 8.52366 18.7594 8.87435C19.3377 9.20137 19.8804 9.34256 20.2647 9.40906V9.40724Z" fill="#557D32"/>
</svg>
