<svg width="26" height="26" fill="none" xmlns="http://www.w3.org/2000/svg"><path d="M13.018.001h-.06C5.799.001-.007 5.808-.007 12.971v.06C-.008 20.194 5.798 26 12.96 26h.06c7.16 0 12.966-5.807 12.966-12.97v-.06c0-7.163-5.806-12.97-12.967-12.97z" fill="#383D38"/><path d="M19.271 9.407v2.455a6.451 6.451 0 01-3.4-1.376v4.961l-.009-.015a4.475 4.475 0 01-4.458 4.77 4.474 4.474 0 01-4.469-4.47 4.475 4.475 0 015.178-4.415v2.42a2.119 2.119 0 00-2.826 1.995c0 1.167.95 2.117 2.117 2.117a2.12 2.12 0 002.112-2.248V5.959h2.453l.026.624c.016.41.162.802.416 1.124.298.378.738.817 1.355 1.167a4.67 4.67 0 001.506.535v-.002z" fill="#fff"/></svg>