<svg width="27" height="26" viewBox="0 0 27 26" fill="none" xmlns="http://www.w3.org/2000/svg">
<path d="M26.9694 13.0005C26.9694 19.5663 22.1039 24.9944 15.7831 25.8752C15.1921 25.9572 14.5874 26 13.9737 26C13.2652 26 12.5695 25.9435 11.892 25.8342C5.70418 24.8377 0.977966 19.4706 0.977966 13.0005C0.977966 5.82069 6.79694 0 13.9746 0C21.1522 0 26.9712 5.82069 26.9712 13.0005H26.9694Z" fill="white"/>
<path d="M6.24875 5.73416L12.2426 13.7501L6.21141 20.2677H7.56917L12.85 14.5618L17.1163 20.2677H21.736L15.4052 11.8008L21.0193 5.73416H19.6615L14.7987 10.9892L10.8693 5.73416H6.24965H6.24875ZM8.24486 6.73433H10.3667L19.738 19.2675H17.6162L8.24486 6.73433Z" fill="#557D32"/>
</svg>
