<svg width="26" height="26" viewBox="0 0 26 26" fill="none" xmlns="http://www.w3.org/2000/svg">
<path d="M25.9914 13.0005C25.9914 19.5663 21.1259 24.9944 14.8051 25.8752C14.2141 25.9572 13.6095 26 12.9957 26C12.2872 26 11.5915 25.9435 10.914 25.8342C4.72621 24.8377 0 19.4706 0 13.0005C0 5.82069 5.81897 0 12.9966 0C20.1743 0 25.9932 5.82069 25.9932 13.0005H25.9914Z" fill="#557D32"/>
<path d="M5.27074 5.73413L11.2646 13.7501L5.2334 20.2676H6.59116L11.872 14.5617L16.1383 20.2676H20.758L14.4272 11.8008L20.0413 5.73413H18.6835L13.8207 10.9892L9.89131 5.73413H5.27164H5.27074ZM7.26685 6.7343H9.38864L18.76 19.2675H16.6382L7.26685 6.7343Z" fill="#FAFFDC"/>
</svg>
